<?xml version="1.0" standalone="no"?>
<!DOCTYPE svg PUBLIC "-//W3C//DTD SVG 20010904//EN"
 "http://www.w3.org/TR/2001/REC-SVG-20010904/DTD/svg10.dtd">
<svg version="1.0" xmlns="http://www.w3.org/2000/svg"
 width="260.000000pt" height="260.000000pt" viewBox="0 0 260.000000 260.000000"
 preserveAspectRatio="xMidYMid meet">
<metadata>
Created by potrace 1.11, written by Peter Selinger 2001-2013
</metadata>
<g transform="translate(0.000000,260.000000) scale(0.100000,-0.100000)"
fill="#000000" stroke="none">
<path d="M563 2213 c-41 -4 -58 -19 -44 -42 4 -6 47 -18 96 -27 112 -19 153
-36 165 -68 11 -30 15 -1277 5 -1418 -6 -70 -12 -101 -24 -112 -9 -8 -63 -21
-123 -29 -120 -17 -128 -20 -128 -47 0 -19 12 -19 395 -18 355 1 396 3 393 17
-2 11 -34 24 -102 42 -105 29 -147 52 -157 90 -4 13 -7 181 -8 372 l-1 349
109 -4 c106 -3 111 -4 141 -33 17 -16 61 -84 97 -150 37 -66 124 -221 193
-345 70 -124 139 -248 153 -276 21 -41 32 -53 58 -58 17 -3 130 -3 250 1 l219
6 0 23 c0 18 -7 25 -27 30 -189 41 -227 63 -313 176 -36 48 -126 191 -201 320
-183 313 -189 325 -189 340 0 7 37 33 81 58 191 106 275 268 236 456 -19 90
-46 144 -105 206 -60 64 -110 93 -208 120 -75 20 -102 22 -499 23 -231 1 -439
0 -462 -2z m688 -87 c142 -26 237 -89 295 -198 37 -70 39 -77 39 -168 0 -81
-4 -103 -26 -150 -58 -123 -136 -171 -316 -195 -60 -8 -129 -15 -154 -15 l-46
0 -6 68 c-4 37 -7 201 -7 364 0 228 3 298 13 301 24 10 133 6 208 -7z"/>
</g>
</svg>
